<svg xmlns="http://www.w3.org/2000/svg" viewBox="0 0 64 64" fill="none">
  <rect width="64" height="64" rx="16" fill="#FFF7E6"/>
  <path d="M14 16.5C14 14.567 15.567 13 17.5 13H30.5C33.124 13 35.26 15.071 35.364 17.693L35.5 21.125V46.5H20.25C16.799 46.5 14 43.701 14 40.25V16.5Z" fill="#FFCC00" stroke="#1A2744" stroke-width="3"/>
  <path d="M50 16.5C50 14.567 48.433 13 46.5 13H33.5C30.876 13 28.74 15.071 28.636 17.693L28.5 21.125V46.5H43.75C47.201 46.5 50 43.701 50 40.25V16.5Z" fill="#3A9FDB" stroke="#1A2744" stroke-width="3"/>
  <path d="M32 21V47" stroke="#1A2744" stroke-width="3" stroke-linecap="round"/>
  <path d="M20 24.5H28" stroke="#1A2744" stroke-width="2.5" stroke-linecap="round"/>
  <path d="M36 24.5H44" stroke="#1A2744" stroke-width="2.5" stroke-linecap="round"/>
  <path d="M20 30.5H28" stroke="#1A2744" stroke-width="2.5" stroke-linecap="round"/>
  <path d="M36 30.5H44" stroke="#1A2744" stroke-width="2.5" stroke-linecap="round"/>
  <path d="M20 36.5H26" stroke="#1A2744" stroke-width="2.5" stroke-linecap="round"/>
  <path d="M38 36.5H44" stroke="#1A2744" stroke-width="2.5" stroke-linecap="round"/>
  <path d="M47.5 18L49.569 22.307L54 23.01L50.75 26.252L51.517 30.75L47.5 28.585L43.483 30.75L44.25 26.252L41 23.01L45.431 22.307L47.5 18Z" fill="#FF6BA8" stroke="#1A2744" stroke-width="2.4" stroke-linejoin="round"/>
</svg>
